<svg xmlns="http://www.w3.org/2000/svg" viewBox="0 0 60 60" enable-background="new 0 0 60 60"><g><circle fill="#55AD45" cx="30" cy="30" r="30"/><path fill="#fff" d="M29.053 39.902c-.229-12.851.051-26.413.182-31.638-.198.322-.455.651-.795.954-1.305 1.16-8.406 8.41-8.803 19.418-.311 8.633 4.082 14.087 6.711 16.621.438-.342 2.067-1.758 2.83-4.076-.073-.393-.125-.809-.125-1.279zm1.037 3.479c-.675 1.227-1.696 1.78-2.779 2.757.279.239.517.434.678.563.748 2.125.967 6.799.967 6.799l1.942-.389s.553-5.198 1.554-6.216l.898-.836c-.697-.627-2.227-1.248-3.26-2.678zm10.259-14.874c-.369-7.685-3.624-13.357-8.544-18.641-1.762-1.893-1.942-3.366-1.942-3.366s-.045.486-.301 1.112c.71 4.515 2.551 17.931 1.919 32.288-.008 4.377 2.525 5.441 2.525 5.441l.058.02c2.478-2.517 6.713-7.924 6.285-16.854z"/></g></svg>